<svg width="24" height="24" viewBox="0 0 24 24" fill="none" xmlns="http://www.w3.org/2000/svg">
<path d="M9.40424 2.04248C8.62991 2.04248 8 2.67239 8 3.44672C8 4.22104 8.62991 4.85095 9.40424 4.85095C10.1786 4.85095 10.8085 4.22104 10.8085 3.44672C10.8085 2.67239 10.1786 2.04248 9.40424 2.04248ZM9.40424 4.08506C9.05225 4.08506 8.76594 3.79875 8.76594 3.44676C8.76594 3.09478 9.05225 2.80847 9.40424 2.80847C9.75622 2.80847 10.0425 3.09478 10.0425 3.44676C10.0425 3.79875 9.75622 4.08506 9.40424 4.08506Z" fill="black" fill-opacity="0.36"/>
<path d="M16.7066 5.22928L11.9833 0.122906C11.9108 0.0445782 11.8088 0 11.7021 0H7.10638C6.99964 0 6.89774 0.0445782 6.82522 0.122906L2.10181 5.22928C2.03633 5.30007 2 5.39293 2 5.48935V21.0638C2 21.2753 2.17147 21.4468 2.38297 21.4468H10.276C10.4875 21.4468 10.659 21.2753 10.659 21.0638C10.659 20.8523 10.4875 20.6808 10.276 20.6808H2.76594V5.63935L7.27377 0.765938H11.5347L16.0425 5.6393V11.8726C16.0425 12.0841 16.214 12.2555 16.4255 12.2555C16.6371 12.2555 16.8085 12.0841 16.8085 11.8726V5.48935C16.8085 5.39297 16.7721 5.30007 16.7066 5.22928Z" fill="black" fill-opacity="0.36"/>
<path d="M9.38175 13.4041C9.59326 13.4041 9.76472 13.2327 9.76472 13.0212C9.76472 12.8096 9.59326 12.6382 9.38175 12.6382C9.17024 12.6382 8.99878 12.8096 8.99878 13.0212C8.99878 13.2327 9.17024 13.4041 9.38175 13.4041Z" fill="black" fill-opacity="0.36"/>
<path d="M11.1693 13.4041C11.3809 13.4041 11.5523 13.2327 11.5523 13.0212C11.5523 12.8096 11.3809 12.6382 11.1693 12.6382C10.9578 12.6382 10.7864 12.8096 10.7864 13.0212C10.7864 13.2327 10.9578 13.4041 11.1693 13.4041Z" fill="black" fill-opacity="0.36"/>
<path d="M7.59464 13.4041C7.80615 13.4041 7.97761 13.2327 7.97761 13.0212C7.97761 12.8096 7.80615 12.6382 7.59464 12.6382C7.38313 12.6382 7.21167 12.8096 7.21167 13.0212C7.21167 13.2327 7.38313 13.4041 7.59464 13.4041Z" fill="black" fill-opacity="0.36"/>
<path d="M14.8715 6.12769H3.89273C3.68123 6.12769 3.50977 6.29915 3.50977 6.51065V19.5319C3.50977 19.7434 3.68123 19.9149 3.89273 19.9149H9.84366C10.0552 19.9149 10.2266 19.7434 10.2266 19.5319C10.2266 19.3204 10.0552 19.1489 9.84366 19.1489H4.2757V6.89367H14.4885V12.051C14.4885 12.2625 14.6599 12.434 14.8714 12.434C15.083 12.434 15.2544 12.2625 15.2544 12.051V6.5107C15.2544 6.2992 15.083 6.12769 14.8715 6.12769Z" fill="black" fill-opacity="0.36"/>
<path d="M16.4033 13.0212C13.3765 13.0212 10.9139 15.4837 10.9139 18.5106C10.9139 21.5375 13.3765 24 16.4033 24C19.4301 24 21.8926 21.5375 21.8926 18.5106C21.8926 15.4838 19.4301 13.0212 16.4033 13.0212ZM16.4033 23.234C13.7988 23.234 11.6799 21.1152 11.6799 18.5106C11.6799 15.9061 13.7988 13.7872 16.4033 13.7872C19.0078 13.7872 21.1267 15.9061 21.1267 18.5106C21.1267 21.1152 19.0078 23.234 16.4033 23.234Z" fill="black" fill-opacity="0.36"/>
<path d="M18.9564 17.3617H17.5521V15.9574C17.5521 15.3239 17.0367 14.8085 16.4032 14.8085C15.7697 14.8085 15.2542 15.3239 15.2542 15.9574V17.3617H13.85C13.2165 17.3617 12.701 17.8771 12.701 18.5106C12.701 19.1442 13.2165 19.6596 13.85 19.6596H15.2542V21.0638C15.2542 21.6974 15.7697 22.2128 16.4032 22.2128C17.0367 22.2128 17.5521 21.6974 17.5521 21.0638V19.6596H18.9564C19.5899 19.6596 20.1053 19.1442 20.1053 18.5106C20.1053 17.8771 19.5898 17.3617 18.9564 17.3617ZM18.9564 18.8936H17.1691C16.9576 18.8936 16.7862 19.0651 16.7862 19.2766V21.0638C16.7862 21.275 16.6144 21.4468 16.4032 21.4468C16.192 21.4468 16.0202 21.275 16.0202 21.0638V19.2766C16.0202 19.0651 15.8488 18.8936 15.6373 18.8936H13.85C13.6388 18.8936 13.467 18.7218 13.467 18.5106C13.467 18.2994 13.6388 18.1276 13.85 18.1276H15.6373C15.8488 18.1276 16.0202 17.9562 16.0202 17.7447V15.9574C16.0202 15.7462 16.192 15.5745 16.4032 15.5745C16.6144 15.5745 16.7862 15.7463 16.7862 15.9574V17.7447C16.7862 17.9562 16.9576 18.1276 17.1691 18.1276H18.9564C19.1676 18.1276 19.3394 18.2994 19.3394 18.5106C19.3394 18.7218 19.1676 18.8936 18.9564 18.8936Z" fill="black" fill-opacity="0.36"/>
</svg>
