<svg width="21" height="22" viewBox="0 0 21 22" fill="none" xmlns="http://www.w3.org/2000/svg">
<mask id="path-1-outside-1" maskUnits="userSpaceOnUse" x="0" y="0" width="21" height="22" fill="black">
<rect fill="white" width="21" height="22"/>
<path fill-rule="evenodd" clip-rule="evenodd" d="M18.991 2.8C18.991 1.81 18.19 1 17.2 1H2.8C1.81 1 1 1.81 1 2.8V13.6C1 14.59 1.81 15.4 2.8 15.4H15.4L19 19L18.991 2.8ZM15.4 11.8H4.60005V10H15.4V11.8ZM15.4 9.10002H4.60005V7.30002H15.4V9.10002ZM15.4 6.40005H4.60005V4.60005H15.4V6.40005Z"/>
</mask>
<path d="M15.4 15.4L16.1071 14.6929L15.8142 14.4H15.4V15.4ZM19 19L18.2929 19.7071L20.0013 21.4156L20 18.9994L19 19ZM4.60005 11.8H3.60005V12.8H4.60005V11.8ZM4.60005 10V9H3.60005V10H4.60005ZM15.4 10H16.4V9H15.4V10ZM4.60005 9.10002H3.60005V10.1H4.60005V9.10002ZM4.60005 7.30002V6.30002H3.60005V7.30002H4.60005ZM15.4 7.30002H16.4V6.30002H15.4V7.30002ZM4.60005 6.40005H3.60005V7.40005H4.60005V6.40005ZM4.60005 4.60005V3.60005H3.60005V4.60005H4.60005ZM15.4 4.60005H16.4V3.60005H15.4V4.60005ZM19.991 2.8C19.991 1.26425 18.7488 0 17.2 0V2C17.6312 2 17.991 2.35575 17.991 2.8H19.991ZM17.2 0H2.8V2H17.2V0ZM2.8 0C1.25772 0 0 1.25772 0 2.8H2C2 2.36228 2.36228 2 2.8 2V0ZM0 2.8V13.6H2V2.8H0ZM0 13.6C0 15.1423 1.25772 16.4 2.8 16.4V14.4C2.36228 14.4 2 14.0377 2 13.6H0ZM2.8 16.4H15.4V14.4H2.8V16.4ZM14.6929 16.1071L18.2929 19.7071L19.7071 18.2929L16.1071 14.6929L14.6929 16.1071ZM20 18.9994L19.991 2.79944L17.991 2.80056L18 19.0006L20 18.9994ZM15.4 10.8H4.60005V12.8H15.4V10.8ZM5.60005 11.8V10H3.60005V11.8H5.60005ZM4.60005 11H15.4V9H4.60005V11ZM14.4 10V11.8H16.4V10H14.4ZM15.4 8.10002H4.60005V10.1H15.4V8.10002ZM5.60005 9.10002V7.30002H3.60005V9.10002H5.60005ZM4.60005 8.30002H15.4V6.30002H4.60005V8.30002ZM14.4 7.30002V9.10002H16.4V7.30002H14.4ZM15.4 5.40005H4.60005V7.40005H15.4V5.40005ZM5.60005 6.40005V4.60005H3.60005V6.40005H5.60005ZM4.60005 5.60005H15.4V3.60005H4.60005V5.60005ZM14.4 4.60005V6.40005H16.4V4.60005H14.4Z" fill="black" fill-opacity="0.6" mask="url(#path-1-outside-1)"/>
</svg>
