<?xml version="1.0" encoding="utf-8"?>
<!-- Generator: Adobe Illustrator 19.0.1, SVG Export Plug-In . SVG Version: 6.00 Build 0)  -->
<svg version="1.1" id="Layer_1" xmlns="http://www.w3.org/2000/svg" xmlns:xlink="http://www.w3.org/1999/xlink" x="0px" y="0px"
	 viewBox="0 0 612 792" enable-background="new 0 0 612 792" xml:space="preserve">
<g>
	<g>
		<g>
			<g>
				<path fill="#758388" d="M46.254,292.624c0,0.946,0.167,1.822,0.5,2.627c0.332,0.805,0.795,1.514,1.39,2.127
					c0.595,0.612,1.295,1.094,2.101,1.443c0.805,0.35,1.681,0.526,2.625,0.526c0.91,0,1.724-0.175,2.441-0.526
					c0.718-0.349,1.33-0.83,1.839-1.443c0.507-0.613,0.892-1.322,1.155-2.127c0.262-0.805,0.393-1.681,0.393-2.627v-12.788
					l-12.445-0.089V292.624z"/>
			</g>
		</g>
		<g>
			<g>
				<path fill="#758388" d="M78.338,298.96l-20.059-23.577c-0.665-0.769-1.453-1.382-2.363-1.838
					c-0.42-0.245-0.875-0.437-1.365-0.577c-0.491-0.14-1.016-0.211-1.575-0.211c-0.946,0-1.82,0.175-2.625,0.526
					c-0.806,0.35-1.516,0.832-2.127,1.444c-0.614,0.612-1.095,1.32-1.444,2.127c-0.35,0.805-0.526,1.679-0.526,2.625v1.107
					l12.445,14.855l20.637,24.155c0.49,0.665,1.12,1.208,1.89,1.628c0.979,0.665,2.117,0.997,3.413,0.997
					c0.944,0,1.819-0.175,2.625-0.526c0.805-0.349,1.514-0.83,2.127-1.443c0.613-0.613,1.094-1.322,1.444-2.127
					c0.349-0.805,0.524-1.681,0.524-2.627v-1.529L78.338,298.96z"/>
			</g>
			<g>
				<path fill="#758388" d="M91.36,301.784c0-0.946-0.165-1.82-0.499-2.625c-0.333-0.806-0.796-1.514-1.392-2.127
					c-0.595-0.613-1.295-1.094-2.1-1.444c-0.806-0.35-1.681-0.526-2.625-0.526c-0.912,0-1.759,0.175-2.547,0.526
					c-0.788,0.35-1.47,0.832-2.048,1.444c-0.577,0.612-1.024,1.32-1.339,2.127c-0.315,0.805-0.473,1.679-0.473,2.625v13.613
					l13.022-0.123V301.784z"/>
			</g>
		</g>
	</g>
	<path fill="#758388" d="M102.439,288.064c1.33-3.027,3.132-5.679,5.409-7.955c2.275-2.275,4.927-4.07,7.955-5.381
		c3.027-1.313,6.256-1.97,9.688-1.97c3.396,0,6.598,0.648,9.609,1.943c3.011,1.296,5.645,3.055,7.903,5.277
		c2.259,2.224,4.052,4.84,5.383,7.85c1.33,3.011,2.03,6.215,2.101,9.609v0.105v0.262v17.748c0,0.912-0.177,1.778-0.526,2.6
		c-0.35,0.823-0.823,1.531-1.417,2.127c-0.597,0.595-1.296,1.068-2.101,1.417c-0.806,0.35-1.681,0.526-2.625,0.526
		c-1.33,0-2.486-0.323-3.466-0.971c-0.981-0.647-1.716-1.497-2.205-2.547c-1.892,1.261-3.896,2.258-6.012,2.993
		c-2.12,0.735-4.333,1.104-6.644,1.104c-3.431,0-6.661-0.657-9.688-1.97c-3.028-1.312-5.681-3.098-7.955-5.356
		c-2.276-2.258-4.078-4.91-5.409-7.955c-1.33-3.045-1.996-6.283-1.996-9.715C100.443,294.339,101.109,291.093,102.439,288.064z
		 M114.464,302.452c0.63,1.453,1.487,2.722,2.573,3.806c1.085,1.085,2.355,1.936,3.807,2.547c1.451,0.614,3.001,0.919,4.646,0.919
		c1.681,0,3.248-0.305,4.701-0.919c1.451-0.611,2.712-1.461,3.78-2.547c1.067-1.084,1.916-2.353,2.547-3.806
		c0.63-1.453,0.944-3.001,0.944-4.648c0-1.679-0.315-3.238-0.944-4.674c-0.631-1.434-1.48-2.695-2.547-3.78
		c-1.068-1.084-2.329-1.933-3.78-2.547c-1.453-0.611-3.02-0.919-4.701-0.919c-1.645,0-3.195,0.308-4.646,0.919
		c-1.453,0.614-2.722,1.463-3.807,2.547c-1.085,1.085-1.943,2.346-2.573,3.78c-0.631,1.436-0.946,2.994-0.946,4.674
		C113.518,299.451,113.833,300.999,114.464,302.452z"/>
	<path fill="#758388" d="M173.509,318.283c-0.333,0.771-0.796,1.453-1.392,2.048c-0.595,0.595-1.286,1.06-2.074,1.392
		c-0.788,0.333-1.62,0.499-2.494,0.499c-0.91,0-1.759-0.165-2.547-0.499c-0.788-0.332-1.479-0.796-2.074-1.392
		c-0.595-0.595-1.068-1.278-1.417-2.048c-0.35-0.769-0.526-1.61-0.526-2.52v-36.599c0-0.875,0.175-1.708,0.526-2.496
		c0.349-0.786,0.822-1.477,1.417-2.074c0.595-0.594,1.303-1.058,2.127-1.392c0.822-0.332,1.689-0.499,2.6-0.499
		c1.33,0,2.52,0.367,3.571,1.103c1.05,0.735,1.819,1.681,2.31,2.836c1.96-1.225,4.07-2.169,6.327-2.836
		c2.258-0.664,4.612-1.014,7.062-1.05h0.105h0.209h0.053c2.135,0,3.798,0.604,4.988,1.812c1.189,1.208,1.786,2.756,1.786,4.646
		c0,0.946-0.177,1.812-0.526,2.6c-0.35,0.788-0.832,1.47-1.444,2.048c-0.613,0.577-1.33,1.024-2.152,1.339
		c-0.823,0.315-1.706,0.473-2.652,0.473h-0.053h-0.209c-1.786,0.034-3.466,0.412-5.041,1.128c-1.575,0.718-2.959,1.681-4.148,2.889
		c-1.191,1.208-2.127,2.617-2.81,4.226c-0.682,1.611-1.023,3.326-1.023,5.146v16.699
		C174.009,316.674,173.842,317.514,173.509,318.283z"/>
	<path fill="#758388" d="M173.509,318.283c-0.333,0.771-0.796,1.453-1.392,2.048c-0.595,0.595-1.286,1.06-2.074,1.392
		c-0.788,0.333-1.62,0.499-2.494,0.499c-0.91,0-1.759-0.165-2.547-0.499c-0.788-0.332-1.479-0.796-2.074-1.392
		c-0.595-0.595-1.068-1.278-1.417-2.048c-0.35-0.769-0.526-1.61-0.526-2.52v-36.599c0-0.875,0.175-1.708,0.526-2.496
		c0.349-0.786,0.822-1.477,1.417-2.074c0.595-0.594,1.303-1.058,2.127-1.392c0.822-0.332,1.689-0.499,2.6-0.499
		c1.33,0,2.52,0.367,3.571,1.103c1.05,0.735,1.819,1.681,2.31,2.836c1.96-1.225,4.07-2.169,6.327-2.836
		c2.258-0.664,4.612-1.014,7.062-1.05h0.105h0.209h0.053c2.135,0,3.798,0.604,4.988,1.812c1.189,1.208,1.786,2.756,1.786,4.646
		c0,0.946-0.177,1.812-0.526,2.6c-0.35,0.788-0.832,1.47-1.444,2.048c-0.613,0.577-1.33,1.024-2.152,1.339
		c-0.823,0.315-1.706,0.473-2.652,0.473h-0.053h-0.209c-1.786,0.034-3.466,0.412-5.041,1.128c-1.575,0.718-2.959,1.681-4.148,2.889
		c-1.191,1.208-2.127,2.617-2.81,4.226c-0.682,1.611-1.023,3.326-1.023,5.146v16.699
		C174.009,316.674,173.842,317.514,173.509,318.283z"/>
	<path fill="#758388" d="M197.744,288.064c1.33-3.027,3.132-5.679,5.409-7.955c2.275-2.275,4.927-4.07,7.955-5.381
		c3.027-1.313,6.256-1.97,9.688-1.97c3.396,0,6.598,0.648,9.609,1.943c3.011,1.296,5.645,3.055,7.903,5.277
		c2.259,2.224,4.052,4.84,5.383,7.85c1.33,3.011,2.03,6.215,2.101,9.609v0.105v0.262v17.748c0,0.912-0.177,1.778-0.526,2.6
		c-0.35,0.823-0.823,1.531-1.417,2.127c-0.597,0.595-1.296,1.068-2.101,1.417c-0.806,0.35-1.681,0.526-2.625,0.526
		c-1.33,0-2.486-0.323-3.466-0.971c-0.981-0.647-1.716-1.497-2.205-2.547c-1.892,1.261-3.896,2.258-6.012,2.993
		c-2.12,0.735-4.333,1.104-6.644,1.104c-3.431,0-6.661-0.657-9.688-1.97c-3.028-1.312-5.681-3.098-7.955-5.356
		c-2.276-2.258-4.078-4.91-5.409-7.955c-1.33-3.045-1.996-6.283-1.996-9.715C195.749,294.339,196.414,291.093,197.744,288.064z
		 M209.769,302.452c0.63,1.453,1.487,2.722,2.573,3.806c1.085,1.085,2.355,1.936,3.807,2.547c1.451,0.614,3.001,0.919,4.646,0.919
		c1.681,0,3.248-0.305,4.701-0.919c1.451-0.611,2.712-1.461,3.78-2.547c1.067-1.084,1.916-2.353,2.547-3.806
		c0.63-1.453,0.944-3.001,0.944-4.648c0-1.679-0.315-3.238-0.944-4.674c-0.631-1.434-1.48-2.695-2.547-3.78
		c-1.068-1.084-2.329-1.933-3.78-2.547c-1.453-0.611-3.02-0.919-4.701-0.919c-1.645,0-3.195,0.308-4.646,0.919
		c-1.453,0.614-2.722,1.463-3.807,2.547c-1.085,1.085-1.943,2.346-2.573,3.78c-0.631,1.436-0.946,2.994-0.946,4.674
		C208.824,299.451,209.138,300.999,209.769,302.452z"/>
	<path fill="#758388" d="M273.226,287.04c-1.348,0.701-2.513,1.611-3.493,2.731c-0.98,1.121-1.749,2.382-2.31,3.78
		c-0.558,1.4-0.84,2.819-0.84,4.253c0,1.4,0.282,2.792,0.84,4.175c0.561,1.383,1.33,2.625,2.31,3.728s2.145,2.014,3.493,2.731
		c1.348,0.718,2.809,1.095,4.384,1.13c1.47,0.07,2.869-0.061,4.202-0.395c1.328-0.332,2.729-1.058,4.199-2.179
		c0.664-0.524,1.373-1.031,2.128-1.523c0.752-0.489,1.564-0.83,2.441-1.023c0.875-0.192,1.792-0.184,2.755,0.026
		c0.963,0.209,1.971,0.771,3.02,1.681c0.701,0.63,1.216,1.348,1.55,2.152c0.333,0.806,0.49,1.654,0.473,2.547
		s-0.219,1.785-0.604,2.678c-0.385,0.893-0.963,1.725-1.732,2.494c-2.205,2.205-4.806,3.886-7.797,5.041
		c-2.994,1.155-6.136,1.734-9.427,1.734c-3.535,0-6.851-0.64-9.951-1.917c-3.097-1.278-5.802-3.027-8.112-5.25
		c-2.31-2.224-4.141-4.849-5.488-7.877c-1.348-3.027-2.021-6.309-2.021-9.846c0-3.5,0.674-6.792,2.021-9.871
		c1.348-3.081,3.178-5.759,5.488-8.035c2.31-2.275,5.015-4.07,8.112-5.381c3.1-1.313,6.416-1.97,9.951-1.97
		c3.325,0,6.475,0.578,9.452,1.734c2.974,1.155,5.567,2.836,7.772,5.041c0.769,0.771,1.348,1.611,1.732,2.52
		c0.385,0.912,0.595,1.812,0.63,2.705c0.034,0.892-0.122,1.742-0.473,2.547c-0.35,0.805-0.875,1.523-1.575,2.152
		c-1.048,0.91-2.057,1.47-3.02,1.681c-0.963,0.209-1.88,0.209-2.755,0c-0.877-0.211-1.689-0.56-2.441-1.05
		c-0.755-0.49-1.464-0.999-2.128-1.524c-1.436-1.084-2.826-1.793-4.174-2.127c-1.348-0.332-2.758-0.48-4.228-0.446
		C276.035,285.956,274.574,286.341,273.226,287.04z"/>
	<g>
		<g>
			<path fill="#758388" d="M319.041,279.686c0-0.98-0.177-1.89-0.527-2.731c-0.35-0.84-0.832-1.575-1.441-2.205
				c-0.615-0.63-1.333-1.12-2.154-1.47c-0.823-0.35-1.706-0.526-2.652-0.526c-0.946,0-1.829,0.184-2.652,0.551
				c-0.823,0.368-1.55,0.866-2.179,1.497c-0.63,0.63-1.128,1.365-1.496,2.205c-0.368,0.84-0.553,1.734-0.553,2.678v7.193h13.655
				V279.686z"/>
			<path fill="#758388" d="M308.455,276.54c-0.98,0-1.89,0.177-2.731,0.527c-0.84,0.35-1.575,0.832-2.205,1.442
				c-0.63,0.615-1.12,1.333-1.47,2.154c-0.35,0.823-0.526,1.706-0.526,2.652s0.184,1.829,0.551,2.652
				c0.367,0.823,0.866,1.55,1.497,2.179c0.63,0.63,1.365,1.128,2.205,1.496c0.84,0.367,1.734,0.553,2.678,0.553h7.193V276.54
				H308.455z"/>
			<g>
				<path fill="#758388" d="M341.436,280.87c-0.367-0.822-0.857-1.548-1.47-2.179c-0.612-0.63-1.339-1.128-2.179-1.496
					c-0.84-0.368-1.732-0.553-2.678-0.553h-16.068h-6.318l-7.337,3.287v10.255l14.283,0.111h15.439c0.946,0,1.837-0.184,2.678-0.551
					c0.84-0.367,1.567-0.858,2.179-1.47c0.613-0.612,1.103-1.33,1.47-2.154c0.368-0.822,0.553-1.688,0.553-2.598
					C341.989,282.576,341.804,281.693,341.436,280.87z"/>
			</g>
		</g>
		<line fill="none" x1="305.387" y1="276.643" x2="319.041" y2="276.642"/>
		<path fill="#758388" d="M348.419,308.569c-0.33-0.909-0.866-1.714-1.601-2.414c-1.014-0.91-2.083-1.444-3.202-1.602
			c-1.12-0.157-2.205-0.043-3.256,0.342c-0.561,0.209-1.068,0.473-1.521,0.788c-0.456,0.315-0.912,0.682-1.367,1.103
			c-0.943,0.84-2.011,1.453-3.202,1.837c-1.191,0.386-2.487,0.578-3.886,0.578c-1.575,0-3.045-0.298-4.41-0.893
			c-1.365-0.595-2.564-1.4-3.598-2.416c-1.031-1.014-1.846-2.205-2.441-3.57c-0.595-1.366-0.892-2.836-0.892-4.411v-10.87h0.628
			l-14.283-0.111v10.876c0,3.466,0.658,6.722,1.971,9.767c1.31,3.045,3.097,5.698,5.356,7.955c2.256,2.258,4.9,4.043,7.928,5.356
			c3.028,1.313,6.276,1.969,9.74,1.969c3.117,0,6.031-0.517,8.743-1.548c2.712-1.033,5.119-2.564,7.219-4.595
			c0.735-0.699,1.313-1.513,1.735-2.441c0.419-0.927,0.664-1.882,0.735-2.862C348.883,310.425,348.752,309.48,348.419,308.569z"/>
	</g>
	<path fill="#758388" d="M368.241,315.764c0,0.91-0.165,1.751-0.499,2.52c-0.333,0.771-0.795,1.453-1.39,2.048
		c-0.595,0.595-1.288,1.06-2.074,1.392c-0.789,0.333-1.621,0.499-2.496,0.499c-0.909,0-1.758-0.165-2.547-0.499
		c-0.786-0.332-1.479-0.796-2.074-1.392c-0.595-0.595-1.068-1.278-1.416-2.048c-0.35-0.769-0.527-1.61-0.527-2.52v-36.599
		c0-0.875,0.177-1.708,0.527-2.496c0.348-0.786,0.82-1.477,1.416-2.074c0.595-0.594,1.305-1.058,2.128-1.392
		c0.82-0.332,1.686-0.499,2.598-0.499c0.875,0,1.706,0.167,2.496,0.499c0.786,0.333,1.461,0.798,2.02,1.392
		c0.561,0.597,1.006,1.288,1.339,2.074c0.333,0.788,0.499,1.621,0.499,2.496V315.764z"/>
	<path fill="#758388" d="M398.065,301.166l10.871-24.523c0.348-0.805,0.84-1.504,1.47-2.101c0.63-0.594,1.33-1.04,2.1-1.339
		c0.769-0.296,1.584-0.437,2.441-0.419c0.857,0.017,1.706,0.201,2.547,0.551c0.84,0.385,1.558,0.892,2.154,1.523
		c0.595,0.63,1.04,1.339,1.339,2.127c0.296,0.788,0.436,1.61,0.419,2.467c-0.017,0.859-0.219,1.706-0.604,2.547l-16.751,36.337
		c-0.419,0.876-0.943,1.594-1.575,2.152c-0.453,0.456-1.031,0.84-1.732,1.155c-0.524,0.246-1.12,0.42-1.783,0.526
		c-0.142,0.036-0.282,0.053-0.422,0.053c-0.14,0-0.279,0-0.419,0h-0.16h-0.051c-0.14,0-0.262-0.009-0.367-0.026
		c-0.105-0.018-0.228-0.027-0.368-0.027c-0.282-0.07-0.578-0.14-0.895-0.209c-0.313-0.07-0.612-0.175-0.892-0.316
		c-0.664-0.279-1.296-0.716-1.889-1.312c-0.561-0.526-1.034-1.189-1.419-1.996l-16.857-36.39c-0.385-0.84-0.587-1.688-0.604-2.547
		c-0.017-0.858,0.122-1.679,0.422-2.467c0.296-0.788,0.744-1.497,1.339-2.127c0.595-0.631,1.293-1.138,2.1-1.523
		c0.84-0.35,1.689-0.534,2.547-0.551c0.858-0.017,1.672,0.131,2.441,0.446s1.461,0.762,2.074,1.339
		c0.612,0.578,1.111,1.286,1.496,2.127L398.065,301.166z"/>
	<path fill="#758388" d="M440.861,315.764c0,0.91-0.165,1.751-0.499,2.52c-0.333,0.771-0.795,1.453-1.39,2.048
		c-0.595,0.595-1.288,1.06-2.074,1.392c-0.789,0.333-1.621,0.499-2.496,0.499c-0.909,0-1.758-0.165-2.547-0.499
		c-0.786-0.332-1.479-0.796-2.074-1.392c-0.595-0.595-1.068-1.278-1.416-2.048c-0.35-0.769-0.527-1.61-0.527-2.52v-36.599
		c0-0.875,0.177-1.708,0.527-2.496c0.348-0.786,0.82-1.477,1.416-2.074c0.595-0.594,1.305-1.058,2.128-1.392
		c0.82-0.332,1.687-0.499,2.598-0.499c0.875,0,1.706,0.167,2.496,0.499c0.786,0.333,1.461,0.798,2.02,1.392
		c0.561,0.597,1.006,1.288,1.339,2.074c0.333,0.788,0.499,1.621,0.499,2.496V315.764z"/>
	<path fill="#758388" d="M518.946,289.665l10.606-14.125c0.527-0.735,1.165-1.33,1.917-1.785c0.752-0.456,1.541-0.754,2.362-0.893
		c0.823-0.14,1.655-0.122,2.496,0.053s1.627,0.524,2.362,1.05c0.735,0.56,1.339,1.216,1.812,1.969c0.473,0.754,0.781,1.55,0.92,2.39
		c0.14,0.84,0.122,1.679-0.054,2.52c-0.174,0.84-0.541,1.611-1.102,2.31l-15.016,18.851v13.706c0,0.91-0.177,1.759-0.527,2.547
		c-0.348,0.788-0.812,1.479-1.39,2.074c-0.578,0.595-1.268,1.06-2.074,1.392c-0.806,0.333-1.647,0.499-2.521,0.499
		c-0.909,0-1.766-0.165-2.573-0.499c-0.806-0.332-1.504-0.796-2.1-1.392c-0.595-0.595-1.068-1.286-1.419-2.074
		c-0.35-0.788-0.524-1.637-0.524-2.547v-14.283l-14.335-18.274c-0.595-0.735-0.98-1.523-1.157-2.363
		c-0.174-0.84-0.182-1.671-0.026-2.494c0.157-0.822,0.473-1.61,0.946-2.363c0.473-0.752,1.077-1.409,1.812-1.969
		c0.735-0.526,1.513-0.875,2.336-1.05c0.823-0.175,1.644-0.192,2.467-0.053c0.823,0.14,1.61,0.446,2.365,0.919
		c0.752,0.473,1.407,1.077,1.969,1.812L518.946,289.665z"/>
	<g>
		<g>
			<path fill="#758388" d="M464.442,279.686c0-0.98-0.177-1.89-0.527-2.731s-0.832-1.575-1.442-2.205
				c-0.615-0.63-1.333-1.12-2.154-1.47c-0.823-0.35-1.706-0.526-2.652-0.526s-1.829,0.184-2.652,0.551
				c-0.823,0.368-1.55,0.866-2.179,1.497c-0.63,0.63-1.128,1.365-1.496,2.205c-0.367,0.84-0.553,1.734-0.553,2.678v7.193h13.655
				V279.686z"/>
			<path fill="#758388" d="M453.856,276.54c-0.98,0-1.89,0.177-2.731,0.527c-0.84,0.35-1.575,0.832-2.205,1.442
				c-0.63,0.615-1.12,1.333-1.47,2.154c-0.35,0.823-0.526,1.706-0.526,2.652s0.184,1.829,0.551,2.652
				c0.367,0.823,0.866,1.55,1.497,2.179c0.63,0.63,1.365,1.128,2.205,1.496c0.84,0.367,1.734,0.553,2.678,0.553h7.193V276.54
				H453.856z"/>
			<g>
				<path fill="#758388" d="M486.837,280.87c-0.367-0.822-0.858-1.548-1.47-2.179c-0.613-0.63-1.339-1.128-2.179-1.496
					c-0.84-0.368-1.732-0.553-2.678-0.553h-16.068h-6.318l-7.337,3.287v10.255l14.283,0.111h15.439c0.946,0,1.838-0.184,2.678-0.551
					c0.84-0.367,1.567-0.858,2.179-1.47c0.612-0.612,1.103-1.33,1.47-2.154c0.367-0.822,0.553-1.688,0.553-2.598
					C487.39,282.576,487.204,281.693,486.837,280.87z"/>
			</g>
		</g>
		<line fill="none" x1="450.788" y1="276.643" x2="464.442" y2="276.642"/>
		<path fill="#758388" d="M493.82,308.569c-0.33-0.909-0.866-1.714-1.601-2.414c-1.014-0.91-2.083-1.444-3.202-1.602
			c-1.12-0.157-2.205-0.043-3.256,0.342c-0.561,0.209-1.068,0.473-1.521,0.788c-0.456,0.315-0.912,0.682-1.367,1.103
			c-0.943,0.84-2.011,1.453-3.202,1.837c-1.191,0.386-2.487,0.578-3.886,0.578c-1.575,0-3.045-0.298-4.41-0.893
			c-1.365-0.595-2.564-1.4-3.598-2.416c-1.031-1.014-1.846-2.205-2.441-3.57c-0.595-1.366-0.892-2.836-0.892-4.411v-10.87h0.628
			l-14.283-0.111v10.876c0,3.466,0.658,6.722,1.971,9.767c1.31,3.045,3.097,5.698,5.356,7.955c2.256,2.258,4.9,4.043,7.928,5.356
			c3.028,1.313,6.276,1.969,9.74,1.969c3.117,0,6.031-0.517,8.743-1.548c2.712-1.033,5.119-2.564,7.219-4.595
			c0.735-0.699,1.313-1.513,1.735-2.441c0.419-0.927,0.664-1.882,0.735-2.862C494.284,310.425,494.153,309.48,493.82,308.569z"/>
	</g>
</g>
<circle fill="#76C1DD" cx="52.578" cy="315.243" r="6.984"/>
<circle fill="#76C1DD" cx="84.857" cy="279.738" r="6.984"/>
</svg>
