<svg width="24" height="24" viewBox="0 0 24 24" fill="none" xmlns="http://www.w3.org/2000/svg">
<path fill-rule="evenodd" clip-rule="evenodd" d="M1 22H5V10H1V22ZM23 11C23 9.9 22.1 9 21 9H14.69L15.64 4.43L15.67 4.11C15.67 3.7 15.5 3.32 15.23 3.05L14.17 2L7.59 8.59C7.22 8.95 7 9.45 7 10V20C7 21.1 7.9 22 9 22H18C18.83 22 19.54 21.5 19.84 20.78L22.86 13.73C22.95 13.5 23 13.26 23 13V11.09L22.99 11.08L23 11Z" fill="#0068FF"/>
<path d="M5 22V22.5H5.5V22H5ZM5 10H5.5V9.5H5V10ZM1 10V9.5H0.5V10H1ZM14.69 9L14.2005 8.89824L14.0754 9.5H14.69V9ZM15.64 4.43L16.1295 4.53176L16.1352 4.50445L16.1378 4.47667L15.64 4.43ZM15.67 4.11L16.1678 4.15667L16.17 4.13339V4.11H15.67ZM15.23 3.05L15.5836 2.69644L15.5819 2.69478L15.23 3.05ZM14.17 2L14.5219 1.64478L14.1681 1.2943L13.8162 1.64672L14.17 2ZM7.59 8.59L7.93871 8.9484L7.94382 8.94328L7.59 8.59ZM19.84 20.78L19.3804 20.5831L19.3785 20.5877L19.84 20.78ZM22.86 13.73L23.3196 13.9269L23.3227 13.9196L23.3256 13.9122L22.86 13.73ZM23 11.09H23.5V10.8829L23.3536 10.7364L23 11.09ZM22.99 11.08L22.4939 11.018L22.4635 11.2606L22.6364 11.4336L22.99 11.08ZM1 22.5H5V21.5H1V22.5ZM5.5 22V10H4.5V22H5.5ZM5 9.5H1V10.5H5V9.5ZM0.5 10V22H1.5V10H0.5ZM23.5 11C23.5 9.62386 22.3761 8.5 21 8.5V9.5C21.8239 9.5 22.5 10.1761 22.5 11H23.5ZM21 8.5H14.69V9.5H21V8.5ZM15.1795 9.10176L16.1295 4.53176L15.1505 4.32824L14.2005 8.89824L15.1795 9.10176ZM16.1378 4.47667L16.1678 4.15667L15.1722 4.06333L15.1422 4.38333L16.1378 4.47667ZM16.17 4.11C16.17 3.56168 15.9432 3.0561 15.5836 2.69645L14.8764 3.40355C15.0568 3.5839 15.17 3.83832 15.17 4.11H16.17ZM15.5819 2.69478L14.5219 1.64478L13.8181 2.35522L14.8781 3.40522L15.5819 2.69478ZM13.8162 1.64672L7.23618 8.23672L7.94382 8.94328L14.5238 2.35328L13.8162 1.64672ZM7.24132 8.23164C6.77538 8.68499 6.5 9.3139 6.5 10H7.5C7.5 9.5861 7.66462 9.21501 7.93868 8.94836L7.24132 8.23164ZM6.5 10V20H7.5V10H6.5ZM6.5 20C6.5 21.3761 7.62386 22.5 9 22.5V21.5C8.17614 21.5 7.5 20.8239 7.5 20H6.5ZM9 22.5H18V21.5H9V22.5ZM18 22.5C19.0362 22.5 19.9256 21.8746 20.3015 20.9723L19.3785 20.5877C19.1544 21.1254 18.6238 21.5 18 21.5V22.5ZM20.2996 20.9769L23.3196 13.9269L22.4004 13.5331L19.3804 20.5831L20.2996 20.9769ZM23.3256 13.9122C23.4366 13.6286 23.5 13.327 23.5 13H22.5C22.5 13.193 22.4634 13.3714 22.3944 13.5478L23.3256 13.9122ZM23.5 13V11.09H22.5V13H23.5ZM23.3536 10.7364L23.3436 10.7264L22.6364 11.4336L22.6464 11.4436L23.3536 10.7364ZM23.4861 11.142L23.4961 11.062L22.5039 10.938L22.4939 11.018L23.4861 11.142Z" fill="#0068FF"/>
</svg>
