<svg width="16" height="16" viewBox="0 0 16 16" fill="none" xmlns="http://www.w3.org/2000/svg">
<path fill-rule="evenodd" clip-rule="evenodd" d="M1 8.08696C1 4.18685 4.18685 1 8.08696 1C11.9871 1 15.1739 4.18685 15.1739 8.08696C15.1739 11.9871 11.9871 15.1739 8.08696 15.1739C4.18685 15.1739 1 11.9871 1 8.08696ZM2 8.08696C2 4.73913 4.73913 2 8.08696 2C11.4348 2 14.1739 4.73913 14.1739 8.08696C14.1739 11.4348 11.4348 14.1739 8.08696 14.1739C4.73913 14.1739 2 11.4348 2 8.08696ZM10.6435 10.6434L7.47826 8.69558V5.0434H8.3913V8.20862L11.1304 9.8521L10.6435 10.6434Z" fill="black" fill-opacity="0.36"/>
</svg>
